<svg width="80" height="80" viewBox="0 0 80 80" fill="none" xmlns="http://www.w3.org/2000/svg">
  <!-- Background gradient -->
  <defs>
    <radialGradient id="bg-gradient" cx="50%" cy="30%" r="70%">
      <stop offset="0%" style="stop-color:#E0D0D0;stop-opacity:0.3"/>
      <stop offset="100%" style="stop-color:#494B33;stop-opacity:0.1"/>
    </radialGradient>
    <linearGradient id="water-gradient" x1="0%" y1="0%" x2="0%" y2="100%">
      <stop offset="0%" style="stop-color:#87CEEB;stop-opacity:0.8"/>
      <stop offset="50%" style="stop-color:#4682B4;stop-opacity:0.9"/>
      <stop offset="100%" style="stop-color:#2F4F4F;stop-opacity:1"/>
    </linearGradient>
    <linearGradient id="glass-gradient" x1="0%" y1="0%" x2="100%" y2="100%">
      <stop offset="0%" style="stop-color:#ffffff;stop-opacity:0.3"/>
      <stop offset="50%" style="stop-color:#ffffff;stop-opacity:0.1"/>
      <stop offset="100%" style="stop-color:#ffffff;stop-opacity:0.05"/>
    </linearGradient>
  </defs>
  
  <!-- Background -->
  <rect width="80" height="80" rx="16" fill="url(#bg-gradient)"/>
  
  <!-- Glass outline -->
  <path d="M25 15 C27 13, 33 13, 35 15 L40 15 C42 13, 48 13, 50 15 L52 20 L50 65 C50 67, 48 69, 45 69 L35 69 C32 69, 30 67, 30 65 L28 20 Z" 
        fill="url(#glass-gradient)" 
        stroke="#494B33" 
        stroke-width="1.5" 
        opacity="0.8"/>
  
  <!-- Water with bubbles -->
  <path d="M30 25 L50 25 L48 60 C48 62, 46 64, 43 64 L37 64 C34 64, 32 62, 32 60 Z" 
        fill="url(#water-gradient)"/>
  
  <!-- Bubbles rising -->
  <circle cx="35" cy="55" r="1.5" fill="#ffffff" opacity="0.7"/>
  <circle cx="42" cy="50" r="1" fill="#ffffff" opacity="0.6"/>
  <circle cx="38" cy="45" r="0.8" fill="#ffffff" opacity="0.8"/>
  <circle cx="45" cy="40" r="1.2" fill="#ffffff" opacity="0.5"/>
  <circle cx="40" cy="35" r="0.6" fill="#ffffff" opacity="0.9"/>
  <circle cx="36" cy="30" r="0.4" fill="#ffffff" opacity="0.7"/>
  
  <!-- Glass rim highlight -->
  <ellipse cx="40" cy="20" rx="12" ry="2" fill="#ffffff" opacity="0.4"/>
  
  <!-- Taste indicator waves -->
  <path d="M15 45 Q20 42, 25 45" stroke="#C27061" stroke-width="1.5" fill="none" opacity="0.6"/>
  <path d="M55 40 Q60 37, 65 40" stroke="#C27061" stroke-width="1.5" fill="none" opacity="0.6"/>
  <path d="M58 50 Q63 47, 68 50" stroke="#CEB49F" stroke-width="1.2" fill="none" opacity="0.5"/>
</svg>