<svg width="80" height="80" viewBox="0 0 80 80" fill="none" xmlns="http://www.w3.org/2000/svg">
  <defs>
    <!-- Background gradient for luxury -->
    <radialGradient id="luxury-bg" cx="50%" cy="40%" r="70%">
      <stop offset="0%" style="stop-color:#E0D0D0;stop-opacity:0.5"/>
      <stop offset="50%" style="stop-color:#CEB49F;stop-opacity:0.3"/>
      <stop offset="100%" style="stop-color:#494B33;stop-opacity:0.2"/>
    </radialGradient>
    
    <!-- Glass gradients -->
    <linearGradient id="wine-glass" x1="0%" y1="0%" x2="100%" y2="100%">
      <stop offset="0%" style="stop-color:#ffffff;stop-opacity:0.6"/>
      <stop offset="30%" style="stop-color:#E0D0D0;stop-opacity:0.4"/>
      <stop offset="70%" style="stop-color:#CEB49F;stop-opacity:0.3"/>
      <stop offset="100%" style="stop-color:#494B33;stop-opacity:0.2"/>
    </linearGradient>
    
    <!-- Water/champagne gradient -->
    <linearGradient id="sparkling-water" x1="0%" y1="0%" x2="0%" y2="100%">
      <stop offset="0%" style="stop-color:#ffffff;stop-opacity:0.8"/>
      <stop offset="20%" style="stop-color:#E0D0D0;stop-opacity:0.9"/>
      <stop offset="100%" style="stop-color:#CEB49F;stop-opacity:0.7"/>
    </linearGradient>
    
    <!-- Bubble gradient -->
    <radialGradient id="bubble-shine" cx="30%" cy="30%" r="70%">
      <stop offset="0%" style="stop-color:#ffffff;stop-opacity:0.9"/>
      <stop offset="70%" style="stop-color:#ffffff;stop-opacity:0.3"/>
      <stop offset="100%" style="stop-color:#ffffff;stop-opacity:0.1"/>
    </radialGradient>
  </defs>
  
  <!-- Luxury background -->
  <rect width="80" height="80" rx="16" fill="url(#luxury-bg)"/>
  
  <!-- Elegant champagne flute -->
  <!-- Bowl of glass -->
  <path d="M32 25 C32 20, 38 18, 40 18 C42 18, 48 20, 48 25 L46 45 C46 48, 44 50, 40 50 C36 50, 34 48, 34 45 Z" 
        fill="url(#wine-glass)" 
        stroke="#494B33" 
        stroke-width="1.2" 
        opacity="0.8"/>
  
  <!-- Stem -->
  <rect x="39" y="50" width="2" height="15" fill="#494B33" opacity="0.7"/>
  
  <!-- Base -->
  <ellipse cx="40" cy="67" rx="8" ry="3" fill="#494B33" opacity="0.6"/>
  
  <!-- Sparkling water with bubbles -->
  <path d="M34 30 C34 27, 36 26, 40 26 C44 26, 46 27, 46 30 L45 42 C45 44, 43 45, 40 45 C37 45, 35 44, 35 42 Z" 
        fill="url(#sparkling-water)"/>
  
  <!-- Rising bubbles in glass -->
  <circle cx="38" cy="40" r="1" fill="url(#bubble-shine)"/>
  <circle cx="42" cy="37" r="0.8" fill="url(#bubble-shine)"/>
  <circle cx="40" cy="35" r="0.6" fill="url(#bubble-shine)"/>
  <circle cx="39" cy="32" r="0.4" fill="url(#bubble-shine)"/>
  <circle cx="41" cy="30" r="0.3" fill="url(#bubble-shine)"/>
  
  <!-- Luxury bubbles floating around glass -->
  <circle cx="25" cy="35" r="2" fill="url(#bubble-shine)" opacity="0.6"/>
  <circle cx="55" cy="30" r="1.5" fill="url(#bubble-shine)" opacity="0.7"/>
  <circle cx="52" cy="45" r="1.8" fill="url(#bubble-shine)" opacity="0.5"/>
  <circle cx="28" cy="50" r="1.2" fill="url(#bubble-shine)" opacity="0.6"/>
  
  <!-- Elegant sparkles -->
  <g opacity="0.8">
    <!-- Large sparkle -->
    <path d="M20 20 L22 18 L24 20 L22 22 Z M20 20 L18 18 L16 20 L18 22 Z" fill="#C27061"/>
    <path d="M20 20 L22 16 L20 14 L18 16 Z M20 20 L22 24 L20 26 L18 24 Z" fill="#C27061"/>
    
    <!-- Medium sparkles -->
    <path d="M60 25 L61 24 L62 25 L61 26 Z M60 25 L59 24 L58 25 L59 26 Z" fill="#CEB49F"/>
    <path d="M15 45 L16 44 L17 45 L16 46 Z M15 45 L14 44 L13 45 L14 46 Z" fill="#E0D0D0"/>
    
    <!-- Small sparkles -->
    <circle cx="62" cy="55" r="0.5" fill="#C27061" opacity="0.7"/>
    <circle cx="18" cy="60" r="0.5" fill="#CEB49F" opacity="0.6"/>
  </g>
  
  <!-- Glass rim highlight -->
  <ellipse cx="40" cy="22" rx="8" ry="1.5" fill="#ffffff" opacity="0.5"/>
  
  <!-- Luxury accent curves -->
  <path d="M10 40 Q15 35, 20 40" stroke="#C27061" stroke-width="1.5" fill="none" opacity="0.4"/>
  <path d="M60 50 Q65 45, 70 50" stroke="#CEB49F" stroke-width="1.2" fill="none" opacity="0.4"/>
</svg>