<svg width="80" height="80" viewBox="0 0 80 80" fill="none" xmlns="http://www.w3.org/2000/svg">
  <defs>
    <!-- Background gradient -->
    <radialGradient id="bg-mineral" cx="50%" cy="30%" r="80%">
      <stop offset="0%" style="stop-color:#E0D0D0;stop-opacity:0.4"/>
      <stop offset="100%" style="stop-color:#494B33;stop-opacity:0.15"/>
    </radialGradient>
    
    <!-- Crystal gradients -->
    <linearGradient id="calcium-crystal" x1="0%" y1="0%" x2="100%" y2="100%">
      <stop offset="0%" style="stop-color:#ffffff;stop-opacity:0.9"/>
      <stop offset="50%" style="stop-color:#CEB49F;stop-opacity:0.8"/>
      <stop offset="100%" style="stop-color:#494B33;stop-opacity:0.6"/>
    </linearGradient>
    
    <linearGradient id="magnesium-crystal" x1="0%" y1="0%" x2="100%" y2="100%">
      <stop offset="0%" style="stop-color:#ffffff;stop-opacity:0.8"/>
      <stop offset="50%" style="stop-color:#C27061;stop-opacity:0.7"/>
      <stop offset="100%" style="stop-color:#35271C;stop-opacity:0.5"/>
    </linearGradient>
    
    <linearGradient id="potassium-crystal" x1="0%" y1="0%" x2="100%" y2="100%">
      <stop offset="0%" style="stop-color:#ffffff;stop-opacity:0.7"/>
      <stop offset="50%" style="stop-color:#E0D0D0;stop-opacity:0.6"/>
      <stop offset="100%" style="stop-color:#CEB49F;stop-opacity:0.4"/>
    </linearGradient>
  </defs>
  
  <!-- Background -->
  <rect width="80" height="80" rx="16" fill="url(#bg-mineral)"/>
  
  <!-- Main large crystal (Calcium) -->
  <path d="M25 35 L35 20 L45 25 L50 35 L45 50 L35 55 L25 50 Z" 
        fill="url(#calcium-crystal)" 
        stroke="#494B33" 
        stroke-width="1" 
        opacity="0.9"/>
  
  <!-- Crystal facets for depth -->
  <path d="M35 20 L40 30 L35 40 L30 30 Z" 
        fill="#ffffff" 
        opacity="0.3"/>
  <path d="M40 30 L45 25 L45 40 L40 35 Z" 
        fill="#CEB49F" 
        opacity="0.4"/>
  
  <!-- Medium crystal (Magnesium) -->
  <path d="M52 25 L60 18 L65 25 L62 35 L55 38 L50 32 Z" 
        fill="url(#magnesium-crystal)" 
        stroke="#C27061" 
        stroke-width="0.8" 
        opacity="0.8"/>
  
  <!-- Small crystal cluster (Potassium) -->
  <path d="M20 55 L28 50 L32 55 L30 62 L25 65 L18 60 Z" 
        fill="url(#potassium-crystal)" 
        stroke="#CEB49F" 
        stroke-width="0.6" 
        opacity="0.7"/>
  
  <!-- Tiny crystals for detail -->
  <polygon points="55,50 60,45 63,50 60,55" 
           fill="#E0D0D0" 
           opacity="0.6"/>
  <polygon points="15,30 20,25 23,30 20,35" 
           fill="#C27061" 
           opacity="0.5"/>
  
  <!-- Sparkle effects -->
  <path d="M30 25 L32 23 L30 21 L28 23 Z M30 25 L32 27 L30 29 L28 27 Z" 
        fill="#ffffff" 
        opacity="0.8"/>
  <path d="M55 40 L56 39 L55 38 L54 39 Z M55 40 L56 41 L55 42 L54 41 Z" 
        fill="#ffffff" 
        opacity="0.7"/>
  <path d="M40 45 L41 44 L40 43 L39 44 Z M40 45 L41 46 L40 47 L39 46 Z" 
        fill="#ffffff" 
        opacity="0.6"/>
  
  <!-- Mineral symbols overlay -->
  <text x="35" y="68" text-anchor="middle" fill="#494B33" font-size="8" font-family="Arial" font-weight="bold" opacity="0.7">Ca²⁺</text>
  <text x="58" y="32" text-anchor="middle" fill="#C27061" font-size="6" font-family="Arial" font-weight="bold" opacity="0.6">Mg²⁺</text>
  <text x="25" y="62" text-anchor="middle" fill="#CEB49F" font-size="6" font-family="Arial" font-weight="bold" opacity="0.6">K⁺</text>
</svg>